<svg width="100" height="100" xmlns="http://www.w3.org/2000/svg">

 <g>
  <title>background</title>
  <rect fill="none" id="canvas_background" height="402" width="582" y="-1" x="-1"/>
 </g>
 <g>
  <title>Layer 1</title>
  <circle id="svg_1" r="45" fill="#240041" cy="50" cx="50"/>
  <path id="svg_2" fill="#FFFFFF" d="m82.735,47.089l-0.479,-3.385c-0.022,-0.159 -0.169,-0.269 -0.328,-0.247l-4.927,0.698c-0.256,0.036 -0.428,-0.255 -0.273,-0.462l2.99,-3.977c0.096,-0.128 0.071,-0.31 -0.058,-0.407l-2.733,-2.054c-0.128,-0.096 -0.31,-0.071 -0.407,0.058l-5.318,7.073c-0.066,0.039 -0.125,0.074 -0.191,0.113l-14.692,2.081c-0.256,0.036 -0.428,-0.255 -0.273,-0.462l8.917,-11.861c0.066,-0.039 0.125,-0.074 0.191,-0.113l8.762,-1.241c0.159,-0.022 0.269,-0.169 0.247,-0.328l-0.479,-3.385c-0.022,-0.159 -0.169,-0.269 -0.328,-0.247l-4.927,0.698c-0.256,0.036 -0.428,-0.255 -0.273,-0.462l2.99,-3.977c0.096,-0.128 0.071,-0.31 -0.058,-0.407l-2.733,-2.054c-0.128,-0.096 -0.31,-0.071 -0.407,0.058l-2.99,3.977c-0.155,0.207 -0.483,0.122 -0.52,-0.134l-0.698,-4.927c-0.022,-0.159 -0.169,-0.269 -0.328,-0.247l-3.386,0.48c-0.159,0.023 -0.269,0.169 -0.247,0.328l1.242,8.762c-0.019,0.075 -0.036,0.141 -0.055,0.215l-8.917,11.86c-0.155,0.207 -0.483,0.122 -0.52,-0.134l-2.079,-14.692c0.019,-0.075 0.036,-0.141 0.055,-0.215l5.318,-7.073c0.096,-0.128 0.071,-0.31 -0.058,-0.407l-2.733,-2.054c-0.128,-0.096 -0.31,-0.071 -0.407,0.058l-2.99,3.977c-0.155,0.207 -0.483,0.122 -0.52,-0.134l-0.698,-4.927c-0.022,-0.159 -0.169,-0.269 -0.328,-0.247l-3.386,0.48c-0.159,0.023 -0.269,0.169 -0.247,0.328l0.698,4.926c0.036,0.256 -0.255,0.428 -0.462,0.273l-3.976,-2.989c-0.128,-0.096 -0.31,-0.071 -0.406,0.058l-2.055,2.733c-0.096,0.128 -0.071,0.31 0.058,0.407l7.073,5.317c0.039,0.066 0.074,0.125 0.113,0.191l2.081,14.693c0.036,0.256 -0.255,0.428 -0.462,0.273l-11.86,-8.917c-0.039,-0.066 -0.074,-0.125 -0.113,-0.191l-1.242,-8.763c-0.022,-0.159 -0.169,-0.269 -0.328,-0.247l-3.386,0.48c-0.159,0.023 -0.269,0.169 -0.247,0.328l0.698,4.926c0.036,0.256 -0.255,0.428 -0.462,0.273l-3.976,-2.989c-0.128,-0.096 -0.31,-0.071 -0.407,0.058l-2.055,2.733c-0.096,0.128 -0.071,0.31 0.058,0.407l3.977,2.99c0.207,0.155 0.122,0.483 -0.134,0.52l-4.926,0.698c-0.159,0.022 -0.269,0.169 -0.247,0.328l0.479,3.386c0.022,0.159 0.169,0.269 0.328,0.247l8.763,-1.241c0.075,0.019 0.141,0.036 0.215,0.055l11.86,8.917c0.207,0.155 0.122,0.483 -0.134,0.52l-14.693,2.082c-0.075,-0.019 -0.141,-0.036 -0.215,-0.055l-7.074,-5.318c-0.128,-0.096 -0.31,-0.071 -0.407,0.058l-2.055,2.733c-0.096,0.128 -0.071,0.31 0.058,0.407l3.977,2.99c0.207,0.155 0.122,0.483 -0.134,0.52l-4.925,0.698c-0.159,0.022 -0.269,0.169 -0.247,0.328l0.479,3.385c0.022,0.159 0.169,0.269 0.328,0.247l4.927,-0.698c0.256,-0.036 0.428,0.255 0.273,0.462l-2.99,3.977c-0.096,0.128 -0.071,0.31 0.058,0.407l2.733,2.054c0.128,0.096 0.31,0.071 0.407,-0.058l5.318,-7.073c0.066,-0.039 0.125,-0.074 0.191,-0.113l14.693,-2.082c0.256,-0.036 0.428,0.255 0.273,0.462l-8.917,11.861c-0.066,0.039 -0.125,0.074 -0.191,0.113l-8.762,1.241c-0.159,0.022 -0.269,0.169 -0.247,0.328l0.479,3.385c0.022,0.159 0.169,0.269 0.328,0.247l4.927,-0.698c0.256,-0.036 0.428,0.255 0.273,0.462l-2.99,3.977c-0.096,0.128 -0.071,0.31 0.058,0.407l2.733,2.054c0.128,0.096 0.31,0.071 0.407,-0.058l2.99,-3.977c0.155,-0.207 0.483,-0.122 0.52,0.134l0.698,4.927c0.022,0.159 0.169,0.269 0.328,0.247l3.386,-0.48c0.159,-0.023 0.269,-0.169 0.247,-0.328l-1.242,-8.762c0.019,-0.075 0.036,-0.141 0.055,-0.215l8.917,-11.86c0.155,-0.207 0.483,-0.122 0.52,0.134l2.081,14.693c-0.019,0.075 -0.036,0.141 -0.055,0.215l-5.318,7.073c-0.096,0.128 -0.071,0.31 0.058,0.407l2.733,2.054c0.128,0.096 0.31,0.071 0.407,-0.058l2.99,-3.977c0.155,-0.207 0.483,-0.122 0.52,0.134l0.698,4.927c0.022,0.159 0.169,0.269 0.328,0.247l3.386,-0.48c0.159,-0.023 0.269,-0.169 0.247,-0.328l-0.698,-4.926c-0.036,-0.256 0.255,-0.428 0.462,-0.273l3.976,2.989c0.128,0.096 0.31,0.071 0.406,-0.058l2.055,-2.733c0.096,-0.128 0.071,-0.31 -0.058,-0.407l-7.073,-5.317c-0.039,-0.066 -0.074,-0.125 -0.113,-0.191l-2.083,-14.697c-0.036,-0.256 0.255,-0.428 0.462,-0.273l11.86,8.917c0.039,0.066 0.074,0.125 0.113,0.191l1.242,8.763c0.023,0.159 0.169,0.269 0.328,0.247l3.386,-0.48c0.159,-0.023 0.269,-0.169 0.247,-0.328l-0.698,-4.926c-0.036,-0.256 0.255,-0.428 0.462,-0.273l3.976,2.989c0.128,0.096 0.31,0.071 0.407,-0.058l2.055,-2.733c0.096,-0.128 0.071,-0.31 -0.058,-0.407l-3.977,-2.99c-0.207,-0.155 -0.122,-0.483 0.134,-0.52l4.926,-0.698c0.159,-0.022 0.269,-0.169 0.247,-0.328l-0.479,-3.386c-0.022,-0.159 -0.169,-0.269 -0.328,-0.247l-8.764,1.241c-0.075,-0.019 -0.141,-0.036 -0.215,-0.055l-11.86,-8.915c-0.207,-0.155 -0.122,-0.483 0.134,-0.52l14.693,-2.082c0.075,0.019 0.141,0.036 0.215,0.055l7.073,5.318c0.128,0.096 0.31,0.071 0.407,-0.058l2.055,-2.733c0.096,-0.128 0.071,-0.31 -0.058,-0.407l-3.977,-2.99c-0.207,-0.155 -0.122,-0.483 0.134,-0.52l4.925,-0.698c0.16,-0.02 0.27,-0.167 0.248,-0.326z"/>
 </g>
</svg>