<svg width="40" height="40" xmlns="http://www.w3.org/2000/svg">
 <title/>

 <g>
  <title>background</title>
  <rect fill="none" id="canvas_background" height="402" width="582" y="-1" x="-1"/>
 </g>
 <g>
  <title fill="#240041" stroke="#900048">Layer 1</title>
  <path fill="#240041" stroke="#900048" id="svg_1" d="m32,20a12,12 0 0 1 -23.48,3.5l4.54,1.87a3.32,3.32 0 0 0 6.32,0.56a3.41,3.41 0 0 0 0.26,-1.37l4.2,-3l0.1,0a4.57,4.57 0 1 0 -4.56,-4.56l0,0.06l-2.93,4.27a3.43,3.43 0 0 0 -2,0.54l-6.45,-2.66l0,0a12,12 0 0 1 24,0.79zm-16.52,6.38l-1.48,-0.62a2.56,2.56 0 0 0 4.68,-0.12l0,0a2.59,2.59 0 0 0 0,-2a2.54,2.54 0 0 0 -1.38,-1.39a2.5,2.5 0 0 0 -1.9,0l1.54,0.63a1.9,1.9 0 0 1 -1.46,3.5zm8.46,-6.38a3,3 0 1 1 3.06,-3a3.05,3.05 0 0 1 -3.06,3zm0,-0.77a2.29,2.29 0 1 0 -2.28,-2.23a2.29,2.29 0 0 0 2.28,2.27l0,-0.04z"/>
 </g>
</svg>