<svg width="128" height="128" xmlns="http://www.w3.org/2000/svg">
 <title/>

 <g>
  <title>background</title>
  <rect fill="none" id="canvas_background" height="402" width="582" y="-1" x="-1"/>
 </g>
 <g>
  <title fill="#900048">Layer 1</title>
  <path fill="#900048" id="svg_1" d="m95.05145,63.96582l-29.34686,-51.94855a2.00082,2.00082 0 0 0 -3.48444,0l-29.33315,51.92408a34.88359,34.88359 0 0 0 -0.28973,35.32349a35.61633,35.61633 0 0 0 31.36513,17.77874a35.61647,35.61647 0 0 0 31.36511,-17.77875a34.87029,34.87029 0 0 0 -0.27606,-35.29901zm-40.27661,38.68909a2.00069,2.00069 0 0 1 -2.72278,0.77179a26.36,26.36 0 0 1 -13.14392,-18.39814a2.00127,2.00127 0 0 1 3.93884,-0.71124a22.37347,22.37347 0 0 0 11.15546,15.61579a2.00024,2.00024 0 0 1 0.7724,2.7218z"/>
  <path fill="#900048" id="svg_2" d="m2.26746,46.80548q-0.27631,0.99133 -0.5213,1.99493a2.00063,2.00063 0 0 0 1.46912,2.41846a2.02516,2.02516 0 0 0 2.41888,-1.46887q0.23016,-0.94153 0.48907,-1.87085a2.00123,2.00123 0 0 0 -3.85577,-1.07367z"/>
  <path fill="#900048" id="svg_3" d="m8.48645,36.15411a2.00233,2.00233 0 0 0 -2.65637,0.9765q-0.433,0.9364 -0.83789,1.88745a2.00127,2.00127 0 0 0 3.68381,1.56513q0.37958,-0.89392 0.787,-1.77319a2.00076,2.00076 0 0 0 -0.97655,-2.65589z"/>
  <path fill="#900048" id="svg_4" d="m13.68481,27.62329a2.00222,2.00222 0 0 0 -2.779,0.53534q-0.57825,0.85437 -1.13007,1.72784a2.00091,2.00091 0 0 0 0.62439,2.75989a2.03037,2.03037 0 0 0 2.76044,-0.62427q0.51663,-0.81921 1.05969,-1.6203a2.0008,2.0008 0 0 0 -0.53545,-2.7785z"/>
  <path fill="#900048" id="svg_5" d="m14.72107,104.95758q0.66028,0.79285 1.34454,1.56317a2.05173,2.05173 0 0 0 2.82489,0.16614a2.0013,2.0013 0 0 0 0.16614,-2.82544q-0.64206,-0.721 -1.26056,-1.46545a2.00109,2.00109 0 1 0 -3.075,2.56158l-0.00001,0z"/>
  <path fill="#900048" id="svg_6" d="m5.06451,89.19531a2.04612,2.04612 0 0 0 2.627,1.05219a2.00113,2.00113 0 0 0 1.05286,-2.62708q-0.37885,-0.88513 -0.73041,-1.78394a2.00132,2.00132 0 0 0 -3.72778,1.45764q0.37456,0.95688 0.77833,1.90119z"/>
  <path fill="#900048" id="svg_7" d="m9.86517,98.29962a2.05088,2.05088 0 0 0 2.76239,0.61646a2.00139,2.00139 0 0 0 0.61658,-2.76184q-0.51672,-0.81335 -1.00842,-1.6452a2.0009,2.0009 0 1 0 -3.44635,2.034q0.52395,0.88805 1.0758,1.75658z"/>
  <path fill="#900048" id="svg_8" d="m0.31464,56.918q-0.11362,1.02356 -0.194,2.0545a2.00158,2.00158 0 0 0 1.84,2.15039a2.05836,2.05836 0 0 0 2.1507,-1.83966q0.07471,-0.96652 0.18121,-1.92365a2.00117,2.00117 0 0 0 -3.97791,-0.44158z"/>
  <path fill="#900048" id="svg_9" d="m18.95746,24.29333q0.6405,-0.72473 1.30444,-1.42834a2.00114,2.00114 0 0 0 -2.91284,-2.74475q-0.70789,0.751 -1.39044,1.52356a2.00016,2.00016 0 0 0 0.17438,2.82385a2.04379,2.04379 0 0 0 2.82446,-0.17432z"/>
  <path fill="#900048" id="svg_10" d="m0.13629,69.26825a2.05526,2.05526 0 0 0 2.15704,1.83175a2.02226,2.02226 0 0 0 1.83267,-2.15609q-0.07846,-0.95993 -0.126,-1.9295a2.00113,2.00113 0 1 0 -3.9975,0.19537q0.05057,1.03464 0.13379,2.05847z"/>
  <path fill="#900048" id="svg_11" d="m5.67816,78.47321q-0.23163,-0.93649 -0.43384,-1.88458a2.00118,2.00118 0 0 0 -3.91442,0.83437q0.21542,1.01111 0.46216,2.00958a2.05076,2.05076 0 0 0 2.42284,1.4625a2.00086,2.00086 0 0 0 1.46326,-2.42187z"/>
  <path fill="#900048" id="svg_12" d="m120.5899,34.09863a2.00121,2.00121 0 0 0 -3.53723,1.8728q0.45145,0.85217 0.87646,1.71991a2.001,2.001 0 0 0 3.59393,-1.76044q-0.45217,-0.9239 -0.93316,-1.83227z"/>
  <path fill="#900048" id="svg_13" d="m32.83978,12.345a1.9346,1.9346 0 0 0 1.00336,-0.25879q0.83322,-0.48358 1.68359,-0.94177a2.00118,2.00118 0 1 0 -1.89758,-3.52393q-0.908,0.48944 -1.79694,1.00629a2.00018,2.00018 0 0 0 -0.72461,2.735a2.04281,2.04281 0 0 0 1.73218,0.9832z"/>
  <path fill="#900048" id="svg_14" d="m124.65918,43.5575a2.00106,2.00106 0 0 0 -3.7923,1.27887q0.3078,0.91452 0.58777,1.84113a2.00113,2.00113 0 0 0 3.83234,-1.15381q-0.29828,-0.98997 -0.62781,-1.96619z"/>
  <path fill="#900048" id="svg_15" d="m125.46289,57.85535a2.02041,2.02041 0 0 0 1.98651,-2.26117q-0.13486,-1.02576 -0.30243,-2.04083a2.00093,2.00093 0 0 0 -3.94861,0.65063q0.1561,0.95032 0.2829,1.91095a2.00138,2.00138 0 0 0 1.98163,1.74042z"/>
  <path fill="#900048" id="svg_16" d="m91.30023,10.567a2.0218,2.0218 0 0 0 2.694,-0.86658a2.00022,2.00022 0 0 0 -0.86679,-2.69342q-0.91891,-0.47186 -1.85553,-0.91345a2.001,2.001 0 1 0 -1.709,3.61865q0.87648,0.41396 1.73732,0.8548z"/>
  <path fill="#900048" id="svg_17" d="m82.37213,6.87164a2.00084,2.00084 0 1 0 1.22632,-3.80914q-0.98062,-0.31577 -1.97382,-0.60034a2.001,2.001 0 1 0 -1.10223,3.84729q0.93146,0.26669 1.84973,0.56219z"/>
  <path fill="#900048" id="svg_18" d="m51.41156,5.26752a2.01452,2.01452 0 0 0 0.405,-0.04156q0.94391,-0.19409 1.89856,-0.358a2.00075,2.00075 0 1 0 -0.67612,-3.94396q-1.02017,0.17514 -2.02856,0.38245a2.00107,2.00107 0 0 0 0.40112,3.96112l0,-0.00005z"/>
  <path fill="#900048" id="svg_19" d="m61.40277,4.05121q0.96149,-0.04037 1.93036,-0.04987a2.00084,2.00084 0 0 0 -0.01862,-4.00159l-0.01951,0q-1.03328,0.01025 -2.06032,0.05372a2.00073,2.00073 0 0 0 0.08258,3.99969c0.02838,0 0.05719,-0.00049 0.08551,-0.00195z"/>
  <path fill="#900048" id="svg_20" d="m72.97107,4.66864a2.0011,2.0011 0 0 0 0.59509,-3.9577q-1.01642,-0.15234 -2.0437,-0.2735a2.00085,2.00085 0 1 0 -0.468,3.97424q0.96294,0.11353 1.91661,0.25696z"/>
  <path fill="#900048" id="svg_21" d="m41.83368,8.05609a1.94416,1.94416 0 0 0 0.71381,-0.12787q0.90134,-0.34433 1.816,-0.65991a2.00069,2.00069 0 1 0 -1.30449,-3.78278q-0.977,0.33627 -1.94012,0.7049a2.00024,2.00024 0 0 0 -1.155,2.583a2.02876,2.02876 0 0 0 1.8698,1.28266z"/>
  <path fill="#900048" id="svg_22" d="m111.08136,104.42419a2.02563,2.02563 0 0 0 2.81317,-0.31067q0.64416,-0.8031 1.2644,-1.62567a2.001,2.001 0 0 0 -3.19714,-2.40723c-0.38892,0.51678 -0.78613,1.02582 -1.19116,1.53186a2.00013,2.00013 0 0 0 0.31073,2.81171z"/>
  <path fill="#900048" id="svg_23" d="m109.64545,22.00824a2.00139,2.00139 0 0 0 0.025,-2.82977q-0.72336,-0.73489 -1.4682,-1.44788a2.00094,2.00094 0 1 0 -2.76428,2.89374q0.6991,0.66824 1.37726,1.35895a2.063,2.063 0 0 0 2.83022,0.02496z"/>
  <path fill="#900048" id="svg_24" d="m103.99127,111.45538a2.03721,2.03721 0 0 0 2.82636,0.14362q0.76437,-0.69022 1.50726,-1.40289a2.00084,2.00084 0 1 0 -2.77216,-2.88593q-0.69846,0.66971 -1.41736,1.31885a2.00109,2.00109 0 0 0 -0.1441,2.82635z"/>
  <path fill="#900048" id="svg_25" d="m115.05487,25.41827a2.001,2.001 0 0 0 -3.19128,2.415q0.58255,0.76941 1.1413,1.5592a2.0011,2.0011 0 0 0 3.26654,-2.31244q-0.59583,-0.84114 -1.21656,-1.66176z"/>
  <path fill="#900048" id="svg_26" d="m125.99884,61.82086a2.00113,2.00113 0 0 0 -2.00122,2.00085l0,0.20029q0,0.97083 -0.03076,1.93341a2.00122,2.00122 0 0 0 4.00043,0.127q0.03223,-1.02585 0.03271,-2.06042l0,-0.20026a2.00111,2.00111 0 0 0 -2.00116,-2.00087z"/>
  <path fill="#900048" id="svg_27" d="m116.95593,96.34766a2.0255,2.0255 0 0 0 2.72815,-0.75128q0.51077,-0.89978 0.99231,-1.81421a2.00132,2.00132 0 0 0 -3.54315,-1.86206q-0.45062,0.8573 -0.92877,1.69891a2.001,2.001 0 0 0 0.75146,2.72864z"/>
  <path fill="#900048" id="svg_28" d="m126.81964,76.318q0.19711,-1.00964 0.36151,-2.0321a2.00112,2.00112 0 0 0 -3.95154,-0.635q-0.1539,0.95691 -0.33807,1.90118a2.001,2.001 0 0 0 3.9281,0.76593l0,-0.00001z"/>
  <path fill="#900048" id="svg_29" d="m102.31647,15.2262a2.00077,2.00077 0 0 0 -0.42554,-2.79761q-0.83112,-0.61111 -1.68164,-1.19629a2.00106,2.00106 0 1 0 -2.26892,3.29681q0.79807,0.54877 1.57806,1.1225a2.02707,2.02707 0 0 0 2.79804,-0.42541z"/>
  <path fill="#900048" id="svg_30" d="m123.4563,81.7655a1.99941,1.99941 0 0 0 -2.53076,1.26617q-0.30707,0.92029 -0.64294,1.82788a2.00094,2.00094 0 0 0 1.18182,2.57135a2.02609,2.02609 0 0 0 2.57135,-1.18213q0.35907,-0.96863 0.68689,-1.95294a2.00006,2.00006 0 0 0 -1.26636,-2.53033z"/>
  <path fill="#900048" id="svg_31" d="m32.31927,115.04181a2.00082,2.00082 0 1 0 -2.1106,3.39978q0.87643,0.54373 1.77057,1.061a2.02723,2.02723 0 0 0 2.734,-0.73071a2.00037,2.00037 0 0 0 -0.7309,-2.73352q-0.83979,-0.48517 -1.66307,-0.99655z"/>
  <path fill="#900048" id="svg_32" d="m42.71405,120.17865q-0.90656,-0.34149 -1.79938,-0.71417a2.0008,2.0008 0 1 0 -1.541,3.693q0.95563,0.39853 1.9245,0.765a2.0224,2.0224 0 0 0 2.57959,-1.16455a2.00063,2.00063 0 0 0 -1.16371,-2.57928z"/>
  <path fill="#900048" id="svg_33" d="m51.20441,126.7771a2.02366,2.02366 0 0 0 2.35736,-1.5661a2.00154,2.00154 0 0 0 -1.56586,-2.35736q-0.94839,-0.19052 -1.88593,-0.41327a2.00107,2.00107 0 0 0 -0.92334,3.89417q1.00324,0.23739 2.01777,0.44256z"/>
  <path fill="#900048" id="svg_34" d="m98.07568,113.422q-0.7944,0.54813 -1.60687,1.07367a2.00069,2.00069 0 0 0 1.088,3.68121a1.99241,1.99241 0 0 0 1.08411,-0.32043q0.86554,-0.55985 1.71149,-1.144a2.00064,2.00064 0 1 0 -2.27673,-3.29041l0,-0.00004z"/>
  <path fill="#900048" id="svg_35" d="m24.98834,13.21552q-0.81793,0.628 -1.61475,1.28137a2.0009,2.0009 0 1 0 2.53864,3.09351q0.7467,-0.61176 1.51306,-1.20068a2.00089,2.00089 0 1 0 -2.437,-3.17419l0.00005,-0.00001z"/>
  <path fill="#900048" id="svg_36" d="m21.92108,112.32q0.77829,0.677 1.57806,1.32965a2.02369,2.02369 0 0 0 2.81561,-0.28625a2,2 0 0 0 -0.28577,-2.81464q-0.74973,-0.61111 -1.47943,-1.24756a2.00138,2.00138 0 0 0 -2.62848,3.0188l0.00001,0z"/>
  <path fill="#900048" id="svg_37" d="m80.70319,121.68323q-0.9278,0.26816 -1.86682,0.508a2.00075,2.00075 0 0 0 -1.44421,2.43359a2.05953,2.05953 0 0 0 2.434,1.443q1.00113,-0.255 1.989,-0.54126a2.00048,2.00048 0 1 0 -1.112,-3.84332l0.00003,-0.00001z"/>
  <path fill="#900048" id="svg_38" d="m61.42963,127.99829a2.00044,2.00044 0 1 0 0.15833,-3.99774c-0.64734,-0.02637 -1.29132,-0.06055 -1.9328,-0.10645a2.0009,2.0009 0 1 0 -0.28235,3.99182q1.02374,0.07178 2.05682,0.11237z"/>
  <path fill="#900048" id="svg_39" d="m92.38971,119.20166a2.00089,2.00089 0 0 0 -2.66705,-0.94568q-0.8692,0.41327 -1.7525,0.79913a2.0004,2.0004 0 0 0 -1.03381,2.634a2.02406,2.02406 0 0 0 2.63434,1.03363q0.94391,-0.4118 1.87268,-0.85388a2.00071,2.00071 0 0 0 0.94634,-2.6672z"/>
  <path fill="#900048" id="svg_40" d="m71.7218,127.58307a2.00075,2.00075 0 1 0 -0.48267,-3.97229q-0.95636,0.11572 -1.92157,0.20123a2.01258,2.01258 0 0 0 -1.42822,0.796a2.05884,2.05884 0 0 0 0.21179,2.6347a2.13358,2.13358 0 0 0 1.56726,0.55524q1.03181,-0.0908 2.05341,-0.21488z"/>
 </g>
</svg>