<svg width="50" height="50" xmlns="http://www.w3.org/2000/svg">

 <g>
  <title>background</title>
  <rect fill="none" id="canvas_background" height="402" width="582" y="-1" x="-1"/>
 </g>
 <g>
  <title fill="#240041">Layer 1</title>
  <path fill="#240041" id="svg_1" fill-rule="evenodd" d="m13.477,21.189c0.278,1.064 0.701,2.071 1.244,2.998l-2.267,2.266c-0.33,0.33 -0.346,0.86 -0.036,1.21c1.574,1.778 4.638,2.402 6.564,0.789c0.927,0.545 1.933,0.969 2.997,1.248l0,3.2c0,0.713 0.561,0.871 1.134,0.891c2.29,0 4.681,-1.713 4.892,-4.087c1.066,-0.278 2.075,-0.701 3.002,-1.245l2.264,2.266c0.17,0.173 0.4,0.259 0.625,0.259c0.209,0 0.417,-0.074 0.584,-0.221c1.798,-1.587 2.392,-4.649 0.79,-6.561c0.546,-0.927 0.969,-1.934 1.248,-2.999l3.2,0c0.466,0 0.854,-0.364 0.88,-0.83c0.149,-2.392 -1.594,-4.975 -4.076,-5.196c-0.278,-1.066 -0.701,-2.073 -1.245,-3.001l2.264,-2.265c0.33,-0.33 0.348,-0.858 0.038,-1.208c-1.59,-1.801 -4.641,-2.392 -6.56,-0.79c-0.928,-0.545 -1.934,-0.97 -3,-1.249l0,-3.2c0,-0.467 -0.362,-0.852 -0.828,-0.883c-2.398,-0.131 -4.975,1.582 -5.197,4.078c-1.066,0.278 -2.074,0.702 -3.002,1.246l-2.265,-2.267c-0.329,-0.329 -0.862,-0.348 -1.209,-0.036c-1.796,1.584 -2.392,4.654 -0.79,6.561c-0.545,0.926 -0.969,1.932 -1.248,2.996l-3.2,0c-0.468,0 -0.854,0.364 -0.883,0.83c-0.146,2.393 1.597,4.978 4.08,5.2m19.021,12.547c-5.045,3.905 -9.952,3.903 -14.997,0c-0.32,-0.245 -0.762,-0.245 -1.081,0c-5.044,3.905 -9.952,3.903 -14.996,0c-0.386,-0.3 -0.942,-0.229 -1.24,0.159c-0.297,0.386 -0.227,0.938 0.159,1.238c5.516,4.263 11.103,4.401 16.618,0.404c5.338,3.865 10.744,3.865 16.078,0c2.669,1.934 5.356,2.898 8.041,2.898c2.866,0 5.732,-1.101 8.578,-3.302c0.386,-0.3 0.456,-0.854 0.158,-1.24c-0.299,-0.386 -0.852,-0.452 -1.24,-0.157c-5.042,3.905 -9.95,3.903 -14.997,0c-0.319,-0.244 -0.762,-0.244 -1.081,0zm0,4.495c-5.045,3.905 -9.952,3.903 -14.997,0c-0.32,-0.245 -0.762,-0.245 -1.081,0c-5.044,3.905 -9.952,3.903 -14.996,0c-0.386,-0.3 -0.942,-0.229 -1.24,0.159c-0.297,0.386 -0.227,0.938 0.159,1.238c5.516,4.262 11.103,4.401 16.618,0.404c5.338,3.865 10.744,3.865 16.078,0c2.669,1.934 5.356,2.898 8.041,2.898c2.866,0 5.732,-1.101 8.578,-3.302c0.386,-0.3 0.456,-0.854 0.158,-1.24c-0.299,-0.386 -0.852,-0.452 -1.24,-0.157c-5.042,3.905 -9.95,3.903 -14.997,0c-0.319,-0.244 -0.762,-0.244 -1.081,0zm0,4.495c-5.045,3.905 -9.952,3.903 -14.997,0c-0.32,-0.245 -0.762,-0.245 -1.081,0c-5.044,3.905 -9.952,3.903 -14.996,0c-0.386,-0.299 -0.942,-0.227 -1.24,0.159c-0.297,0.386 -0.227,0.939 0.159,1.238c5.516,4.265 11.103,4.399 16.618,0.404c5.338,3.865 10.744,3.865 16.078,0c2.669,1.934 5.356,2.898 8.041,2.898c2.866,0 5.734,-1.101 8.578,-3.302c0.386,-0.299 0.456,-0.854 0.158,-1.24c-0.299,-0.386 -0.852,-0.455 -1.24,-0.157c-5.042,3.905 -9.95,3.903 -14.997,0c-0.319,-0.245 -0.762,-0.245 -1.081,0zm-4.66,-23.63l-3.207,5.555c-0.165,0.284 -0.462,0.442 -0.766,0.442c-0.151,0 -0.302,-0.038 -0.442,-0.118c-0.422,-0.243 -0.567,-0.784 -0.324,-1.206l2.444,-4.23l-2.621,0c-0.315,0 -0.607,-0.169 -0.765,-0.443c-0.157,-0.273 -0.157,-0.609 0,-0.882l3.756,-6.504c0.247,-0.424 0.786,-0.565 1.205,-0.323c0.423,0.243 0.567,0.784 0.324,1.206l-2.99,5.179l2.621,0c0.316,0 0.605,0.169 0.765,0.442c0.157,0.271 0.157,0.609 0,0.882z" clip-rule="evenodd"/>
 </g>
</svg>